HIERARCHY
ROOT Hips
{
 OFFSET 0.000000 0.000000 0.000000
 CHANNELS 6 Xposition Yposition Zposition Yrotation Xrotation Zrotation
 JOINT Chest
 {
  OFFSET 0.000000 9.585900 0.002600
  CHANNELS 3 Yrotation Xrotation Zrotation
  JOINT Chest2
  {
   OFFSET 0.000000 9.601200 -0.005300
   CHANNELS 3 Yrotation Xrotation Zrotation
   JOINT Chest3
   {
    OFFSET 0.000000 9.561800 0.000000
    CHANNELS 3 Yrotation Xrotation Zrotation
    JOINT Chest4
    {
     OFFSET 0.000000 9.552100 0.000000
     CHANNELS 3 Yrotation Xrotation Zrotation
     JOINT Neck
     {
      OFFSET 0.000000 14.453000 0.000000
      CHANNELS 3 Yrotation Xrotation Zrotation
      JOINT Head
      {
       OFFSET 0.000000 8.936500 -0.011300
       CHANNELS 3 Yrotation Xrotation Zrotation
       End Site
       {
        OFFSET 0.000000 17.073600 -0.006000
       }
      }
     }
     JOINT RightCollar
     {
      OFFSET -2.921100 9.558500 0.000000
      CHANNELS 3 Yrotation Xrotation Zrotation
      JOINT RightShoulder
      {
       OFFSET -13.519700 0.000000 0.000000
       CHANNELS 3 Yrotation Xrotation Zrotation
       JOINT RightElbow
       {
        OFFSET 0.000000 -29.696600 0.000000
        CHANNELS 3 Yrotation Xrotation Zrotation
        JOINT RightWrist
        {
         OFFSET 0.000000 -24.004700 0.000000
         CHANNELS 3 Yrotation Xrotation Zrotation
         End Site
         {
          OFFSET 0.000000 -17.728500 0.000000
         }
        }
       }
      }
     }
     JOINT LeftCollar
     {
      OFFSET 2.921100 9.558500 0.000000
      CHANNELS 3 Yrotation Xrotation Zrotation
      JOINT LeftShoulder
      {
       OFFSET 13.519700 0.000000 0.000000
       CHANNELS 3 Yrotation Xrotation Zrotation
       JOINT LeftElbow
       {
        OFFSET 0.000000 -29.696600 0.000000
        CHANNELS 3 Yrotation Xrotation Zrotation
        JOINT LeftWrist
        {
         OFFSET 0.000000 -24.004700 0.000000
         CHANNELS 3 Yrotation Xrotation Zrotation
         End Site
         {
          OFFSET 0.000000 -17.728500 0.000000
         }
        }
       }
      }
     }
    }
   }
  }
 }
 JOINT RightHip
 {
  OFFSET -7.771700 -0.012900 -0.001300
  CHANNELS 3 Yrotation Xrotation Zrotation
  JOINT RightKnee
  {
   OFFSET 0.000000 -40.869800 0.001200
   CHANNELS 3 Yrotation Xrotation Zrotation
   JOINT RightAnkle
   {
    OFFSET 0.000000 -39.717900 0.002100
    CHANNELS 3 Yrotation Xrotation Zrotation
    JOINT RightToe
    {
     OFFSET 0.000000 -4.965400 11.033500
     CHANNELS 3 Yrotation Xrotation Zrotation
     End Site
     {
      OFFSET 0.000000 -1.423100 5.872300
     }
    }
   }
  }
 }
 JOINT LeftHip
 {
  OFFSET 7.771700 -0.012900 -0.001300
  CHANNELS 3 Yrotation Xrotation Zrotation
  JOINT LeftKnee
  {
   OFFSET 0.000000 -40.869800 0.001200
   CHANNELS 3 Yrotation Xrotation Zrotation
   JOINT LeftAnkle
   {
    OFFSET 0.000000 -39.717900 0.002100
    CHANNELS 3 Yrotation Xrotation Zrotation
    JOINT LeftToe
    {
     OFFSET 0.000000 -4.965400 11.033500
     CHANNELS 3 Yrotation Xrotation Zrotation
     End Site
     {
      OFFSET 0.000000 -1.423100 5.872300
     }
    }
   }
  }
 }
}
MOTION
Frames: 16
Frame Time: 0.008333
0.000000 85.388000 0.000000 0.000000 -5.767877 0.000000 0.000000 11.653817 0.000000 0.000000 -5.885947 0.000000 0.000000 -0.000000 0.000000 0.000000 -0.000000 0.000000 0.000000 12.528835 0.000000 0.000000 0.711642 0.000000 0.000000 -0.000000 0.000000 0.000000 0.000000 -90.000000 0.000000 -2.309062 0.000000 0.000000 2.309062 0.000000 0.000000 -0.000000 0.000000 0.000000 -0.000000 90.000000 0.000000 -2.309062 0.000000 0.000000 2.309062 0.000000 0.000000 8.520406 0.000000 0.000000 1.905762 0.000000 -0.000000 -4.658285 0.000000 0.000000 -0.000000 0.000000 0.000000 8.520406 0.000000 0.000000 1.905762 0.000000 -0.000000 -4.658285 0.000000 0.000000 -0.000000 0.000000
-20.239700 58.128530 72.748104 177.870862 -31.708070 -4.702375 2.445198 21.663473 6.660555 0.150629 3.055475 0.586893 0.260598 4.957193 0.957463 1.446195 18.507093 3.803266 -0.499298 8.475090 -4.953569 1.421585 -19.917757 -9.490910 7.165788 -4.163117 -2.854870 24.690176 -23.726196 -24.483995 -17.711778 -63.477900 74.413022 19.911180 -2.162699 -28.713974 -9.641236 -10.587348 -4.082802 -22.199040 -28.694547 4.210060 -57.060481 -69.436654 4.827378 -9.940284 -3.470084 36.787769 5.720622 -39.410859 -1.292584 -3.065440 65.232897 -3.744340 4.595048 12.144974 7.658754 -0.130931 -6.939623 1.099251 -9.687136 -46.467887 5.072859 23.907325 59.817817 22.816760 -7.218151 44.627115 4.721590 0.247741 -22.418335 -6.907805
-20.240810 58.135588 72.743246 177.862834 -31.748187 -4.727548 2.464870 21.643145 6.684984 0.149710 3.026595 0.584681 0.261570 4.939428 0.955289 1.451564 18.478160 3.802821 -0.481504 8.402691 -4.942252 1.457662 -20.051246 -9.482945 7.054190 -3.936859 -2.719123 24.391686 -23.592849 -24.342949 -17.338220 -63.503823 73.780322 19.891497 -1.747991 -27.971974 -9.577156 -9.907332 -4.212864 -21.261198 -28.449133 3.672899 -58.528501 -69.985674 6.912893 -10.400460 -3.528101 34.597875 5.710448 -39.358674 -1.283288 -3.042638 65.214605 -3.678096 4.603020 12.147914 7.631934 -0.138913 -6.937025 1.098796 -9.648623 -46.424507 5.059663 23.904952 59.825449 22.861014 -7.231228 44.584698 4.684427 0.244213 -22.391177 -6.885841
-20.242488 58.143779 72.737951 177.847462 -31.791637 -4.746329 2.490812 21.664645 6.712660 0.145919 2.966383 0.581506 0.261108 4.922917 0.953316 1.451211 18.451493 3.801871 -0.455586 8.323759 -4.933312 1.511385 -20.196067 -9.484269 6.987438 -3.693493 -2.595182 23.980596 -23.380219 -24.116524 -16.685686 -63.621812 72.815507 19.867894 -1.362678 -27.216533 -9.537457 -9.177985 -4.360350 -20.070266 -28.112259 2.978622 -60.736174 -70.632116 9.695304 -10.843249 -3.761060 32.312157 5.702681 -39.303634 -1.259086 -3.036964 65.194854 -3.652750 4.610883 12.154851 7.618859 -0.138655 -6.938574 1.099340 -9.601508 -46.379491 5.044607 23.872955 59.839970 22.871302 -7.212973 44.557753 4.684115 0.238706 -22.378820 -6.883768
-20.235609 58.152057 72.735471 177.836005 -31.820047 -4.815859 2.517957 21.620797 6.786520 0.151075 2.967920 0.581483 0.258879 4.924766 0.952636 1.451065 18.411879 3.796561 -0.424698 8.241016 -4.924416 1.575266 -20.347528 -9.488461 6.934608 -3.437659 -2.481505 23.482563 -23.096778 -23.787340 -15.575836 -63.990275 71.242266 19.743573 -1.085961 -26.452561 -9.519541 -8.432257 -4.517720 -18.628544 -27.657496 2.140699 -63.854188 -71.359565 13.375296 -11.271721 -4.257660 30.178101 5.657382 -39.259187 -1.191353 -3.004587 65.156238 -3.568262 4.618611 12.173840 7.585862 -0.144553 -6.939967 1.096371 -9.562077 -46.342196 5.064348 23.811144 59.835694 22.884048 -7.118635 44.574622 4.773326 0.184645 -22.401760 -6.912996
-20.236863 58.158753 72.734831 177.837786 -31.830518 -4.836726 2.517991 21.539494 6.802723 0.152300 3.003928 0.580446 0.259198 4.911777 0.949682 1.452749 18.391223 3.790823 -0.392044 8.159314 -4.912770 1.641235 -20.497047 -9.488062 6.875958 -3.167460 -2.372892 22.931759 -22.759325 -23.355953 -13.837796 -64.971198 68.686567 19.231714 -0.959346 -25.602702 -9.511293 -7.691668 -4.673271 -16.987545 -27.078585 1.207623 -67.943195 -72.126316 18.061872 -11.746712 -4.983434 28.561241 5.640604 -39.237954 -1.176737 -3.015919 65.136192 -3.560270 4.621113 12.190693 7.567708 -0.138315 -6.947275 1.101019 -9.478297 -46.337198 5.005262 23.757351 59.833180 22.907846 -7.088888 44.593008 4.799226 0.167038 -22.419989 -6.921378
-20.232977 58.165927 72.734939 177.843523 -31.840186 -4.880017 2.534327 21.496980 6.841688 0.146572 3.029218 0.584083 0.267663 4.860644 0.937502 1.458268 18.387813 3.783100 -0.359535 8.081845 -4.895044 1.703593 -20.639174 -9.475301 6.810091 -2.883898 -2.262297 22.337367 -22.381688 -22.829424 -11.450322 -66.605805 65.160791 18.332325 -0.807071 -24.804580 -9.494193 -6.966774 -4.820171 -15.245156 -26.389386 0.257161 -73.087397 -72.804850 23.911115 -12.318269 -5.744148 27.731016 5.603275 -39.214504 -1.131115 -3.030522 65.107880 -3.556537 4.627528 12.209014 7.550439 -0.142964 -6.953105 1.106005 -9.315253 -46.347086 4.900798 23.642184 59.838354 22.945421 -7.038971 44.644421 4.839398 0.141324 -22.467299 -6.932279
-20.225711 58.172862 72.736144 177.843977 -31.847835 -4.927857 2.561794 21.465210 6.885311 0.139911 3.042584 0.590929 0.269242 4.854791 0.933172 1.474963 18.339293 3.752555 -0.328225 8.007721 -4.869176 1.759428 -20.775725 -9.445739 6.734966 -2.592083 -2.144377 21.692448 -21.970724 -22.219781 -8.769131 -68.401242 61.262931 17.515548 -0.082734 -24.345320 -9.459397 -6.268510 -4.955582 -13.515236 -25.603210 -0.639876 -79.113500 -73.197898 30.832256 -12.841783 -6.397491 27.676720 5.565664 -39.193234 -1.082573 -3.041653 65.076149 -3.536834 4.636478 12.227789 7.524531 -0.141865 -6.956463 1.109348 -9.201416 -46.358016 4.845230 23.652102 59.815270 23.069610 -7.069461 44.739794 4.826203 0.122152 -22.547659 -6.911912
-20.217233 58.179770 72.737352 177.827452 -31.862576 -4.959168 2.598528 21.458122 6.924362 0.166596 2.971312 0.561413 0.245145 4.915452 0.960531 1.500348 18.289610 3.714133 -0.299350 7.930863 -4.836274 1.807333 -20.918020 -9.401483 6.641112 -2.299809 -2.019987 20.992075 -21.526447 -21.541917 -6.447298 -69.913966 57.656210 17.103700 1.494419 -24.131904 -9.404065 -5.611685 -5.077696 -11.880608 -24.731334 -1.457463 -85.208357 -73.244856 38.045844 -13.083462 -6.962549 28.128029 5.550854 -39.167583 -1.044687 -3.059134 65.046143 -3.520972 4.650505 12.244775 7.500948 -0.150055 -6.957885 1.111373 -9.084747 -46.358903 4.801282 23.595416 59.813896 23.108827 -7.036480 44.812947 4.847317 0.146094 -22.602737 -6.924443
-20.208695 58.184772 72.741101 177.831119 -31.864814 -4.986160 2.613402 21.440052 6.946852 0.168842 2.966957 0.558102 0.257898 4.878236 0.943387 1.530808 18.274568 3.695876 -0.275993 7.841712 -4.800037 1.843795 -21.083806 -9.348937 6.519473 -2.019050 -1.894323 20.215793 -21.046859 -20.803278 -4.930749 -71.014859 54.708065 16.851933 2.761322 -23.821055 -9.324768 -5.005298 -5.179360 -10.343745 -23.797675 -2.219920 -90.493833 -73.098428 44.633460 -12.990847 -7.477597 28.730703 5.539513 -39.153503 -1.043353 -3.042911 65.022155 -3.454920 4.658468 12.255189 7.470230 -0.160199 -6.955260 1.111397 -8.972302 -46.370171 4.745668 23.621037 59.780365 23.213884 -7.086305 44.902652 4.845003 0.160657 -22.669461 -6.919854
-20.198772 58.188371 72.746645 177.834487 -31.863283 -5.005227 2.636049 21.398503 6.953072 0.160137 2.981466 0.565718 0.320541 4.815267 0.907255 1.501506 18.322172 3.731133 -0.221052 7.712715 -4.796522 1.861200 -21.294404 -9.294339 6.406763 -1.780075 -1.807846 19.332973 -20.544746 -20.014269 -4.098751 -71.787868 52.385788 15.919333 1.490670 -23.295111 -9.174668 -4.481738 -5.276225 -8.838369 -22.837374 -2.971346 -94.614849 -72.934758 50.113249 -12.652029 -7.883339 29.270615 5.523040 -39.144416 -1.025011 -3.044620 64.999201 -3.439184 4.659414 12.258806 7.449373 -0.161409 -6.946701 1.117634 -8.861791 -46.383648 4.694187 23.665293 59.736701 23.320525 -7.148202 45.004442 4.846389 0.167366 -22.744782 -6.909569
-20.187676 58.190456 72.753992 177.851930 -31.857066 -5.022546 2.715676 21.346203 6.974476 0.112440 2.976678 0.566863 0.373159 4.839160 0.909867 1.556617 18.321372 3.731529 -0.239312 7.579487 -4.748747 1.853125 -21.571895 -9.243650 6.173159 -1.576071 -1.688995 18.327412 -20.047292 -19.196474 -3.726978 -72.413584 50.628727 14.221556 -2.054584 -23.032822 -9.077024 -4.013243 -5.288006 -7.299173 -21.878011 -3.737367 -97.648082 -72.742378 54.445566 -12.067693 -8.217491 29.714642 5.500758 -39.139400 -1.013159 -3.045565 64.979657 -3.427929 4.650682 12.253984 7.427828 -0.163668 -6.931293 1.126097 -8.769618 -46.398399 4.647322 23.689555 59.697470 23.396232 -7.218335 45.082852 4.845601 0.168249 -22.800579 -6.900191
-20.174170 58.193335 72.759683 177.870541 -31.871418 -5.038364 2.803233 21.369379 7.018183 0.160034 2.981853 0.564344 0.335072 4.868590 0.925169 1.646603 18.345514 3.742917 -0.282514 7.396334 -4.710362 1.827766 -21.915634 -9.205184 5.875351 -1.467950 -1.608100 17.195971 -19.572795 -18.382440 -4.085491 -73.072140 49.822113 13.225335 -4.455574 -23.975953 -8.963832 -3.673847 -5.253484 -5.716043 -20.928873 -4.514873 -99.717563 -72.581062 57.808349 -11.294183 -8.581794 30.067865 5.470936 -39.109320 -0.994077 -3.039394 64.959405 -3.416400 4.641957 12.228932 7.403748 -0.166871 -6.899779 1.136285 -8.688574 -46.391165 4.609957 23.714129 59.656865 23.455027 -7.252730 45.185575 4.855662 0.185291 -22.874111 -6.892777
-20.158632 58.196622 72.764328 177.872889 -31.901191 -5.042247 2.890198 21.434972 7.065133 0.192555 3.008999 0.570104 0.328293 4.885630 0.932052 1.706729 18.384427 3.765987 -0.301229 7.204035 -4.693802 1.800163 -22.274626 -9.178956 5.575528 -1.403376 -1.568154 15.951143 -19.116721 -17.612722 -5.436711 -73.882550 50.132839 13.231892 -4.662621 -25.947904 -8.774285 -3.403789 -5.179163 -4.134881 -19.977049 -5.279980 -101.090987 -72.788294 60.583026 -10.595224 -8.856907 30.297032 5.461523 -39.066826 -0.978881 -3.018109 64.941749 -3.388865 4.628448 12.203479 7.380461 -0.168295 -6.868569 1.145579 -8.640841 -46.365289 4.592125 23.722138 59.636125 23.476663 -7.200693 45.254071 4.908897 0.215125 -22.929512 -6.921136
-20.146260 58.196034 72.773947 177.895177 -31.895391 -5.024948 2.939106 21.464275 7.074905 0.201743 3.023293 0.573846 0.343329 4.907460 0.938169 1.763454 18.415324 3.786787 -0.318630 7.040909 -4.679172 1.773366 -22.579324 -9.154806 5.256744 -1.320479 -1.524546 14.621970 -18.650990 -16.911770 -7.590020 -74.776148 51.173514 13.019603 -4.787610 -27.674627 -8.539135 -3.122041 -5.039594 -2.607068 -19.002983 -6.005588 -102.241405 -73.470979 63.240555 -10.102899 -8.934050 30.407778 5.453811 -39.052070 -1.008270 -3.000986 64.926120 -3.366679 4.612417 12.127268 7.347905 -0.167347 -6.791099 1.160362 -8.589833 -46.375598 4.542879 23.819431 59.576543 23.558448 -7.190173 45.350146 4.991480 0.216767 -22.999369 -6.947370
-20.132839 58.194261 72.785246 177.927995 -31.877328 -5.008010 2.952040 21.466535 7.064854 0.217194 3.033944 0.579944 0.344762 4.915874 0.937904 1.803772 18.430930 3.799370 -0.315618 6.930630 -4.667617 1.753624 -22.796345 -9.135081 4.958186 -1.189774 -1.476125 13.247776 -18.142752 -16.277247 -10.238097 -75.578919 52.611944 12.382720 -5.578719 -28.765547 -8.225862 -2.792722 -4.842767 -1.125160 -18.007095 -6.689013 -103.459648 -74.402355 65.992971 -9.718495 -8.860636 30.451315 5.435302 -39.065771 -1.042564 -2.997708 64.923295 -3.362464 4.611382 12.115629 7.331201 -0.165670 -6.774359 1.162272 -8.440714 -46.393281 4.461889 23.759841 59.529122 23.530165 -7.314800 45.417489 4.956800 0.292628 -23.032085 -6.935832
